<?xml version="1.0" encoding="UTF-8"?>
<svg width="32" height="32" viewBox="0 0 32 32" fill="none" xmlns="http://www.w3.org/2000/svg">
  <!-- Background circle -->
  <circle cx="16" cy="16" r="16" fill="#7C3AED"/>
  <!-- Question mark -->
  <path d="M16 8C13.7909 8 12 9.79086 12 12C12 12.5523 12.4477 13 13 13C13.5523 13 14 12.5523 14 12C14 10.8954 14.8954 10 16 10C17.1046 10 18 10.8954 18 12C18 13.1046 17.1046 14 16 14C15.4477 14 15 14.4477 15 15V17C15 17.5523 15.4477 18 16 18C16.5523 18 17 17.5523 17 17V16.5C18.3807 15.8333 19.3333 14.4882 19.3333 12.8333C19.3333 10.6122 17.2211 8.5 15 8.5H16V8Z" fill="white"/>
  <circle cx="16" cy="22" r="1.5" fill="white"/>
</svg> 